# xmcd
#
# Track frame offsets:
#	150
#	12900
#	26163
#	35862
#	49327
#	63484
#	83097
#	95082
#	108818
#	120849
#	133471
#	147468
#	158113
#	183205
#	215410
#	227100
#	249564
#	261807
#	291984
#
# Disc length: 4277
#
# Revision: 2
# Processed by: cddbd v1.5.1PL0 Copyright (c) Steve Scherf et al.
# Submitted via: EasyCDDAExtractor 6.2.0.3
# Normalized: r1:DSETVAR1
#
DISCID=1a10b313
DTITLE=Various Artist - Four Women Box Set - CD1
DYEAR=1900
DGENRE=
TTITLE0=Broadway-Blues-Ballads - Don't Let Me Be Misunderstood
TTITLE1=Broadway-Blues-Ballads - Don't Take All Night
TTITLE2=Broadway-Blues-Ballads - How Can I
TTITLE3=Broadway-Blues-Ballads - I'm Blessed
TTITLE4=Broadway-Blues-Ballads - Night Song
TTITLE5=Broadway-Blues-Ballads - Nobody
TTITLE6=Broadway-Blues-Ballads - Of This I'm Sure
TTITLE7=Broadway-Blues-Ballads - Our Love (Will See Us Through)
TTITLE8=Broadway-Blues-Ballads - See-Line Woman
TTITLE9=Broadway-Blues-Ballads - Something Wonderful
TTITLE10=Broadway-Blues-Ballads - The Last Rose Of Summer
TTITLE11=Nina Simone - Broadway-Blues-Ballads - The Laziest Gal In Town
TTITLE12=Nina Simone In Concert - Don't Smoke In Bed
TTITLE13=Nina Simone In Concert - Go Limp
TTITLE14=Nina Simone In Concert - I Loves You, Porgy
TTITLE15=Nina Simone In Concert - Mississippi Goddam
TTITLE16=Nina Simone In Concert - Old Jim Crow
TTITLE17=Nina Simone In Concert - Pirate Jenny
TTITLE18=Nina Simone In Concert - Plain Gold Ring
EXTD=
EXTT0=
EXTT1=
EXTT2=
EXTT3=
EXTT4=
EXTT5=
EXTT6=
EXTT7=
EXTT8=
EXTT9=
EXTT10=
EXTT11=
EXTT12=
EXTT13=
EXTT14=
EXTT15=
EXTT16=
EXTT17=
EXTT18=
PLAYORDER=
